SplineFontDB: 3.0
FontName: post_ssdc
FullName: post_ssdc
FamilyName: post_ssdc
Weight: Medium
Copyright: Created by Andrey V. Panov with FontForge 1.0 (http://fontforge.sf.net)
UComments: "2007-3-15: Created." 
Version: 001.000
ItalicAngle: 0
UnderlinePosition: -100
UnderlineWidth: 50
Ascent: 800
Descent: 200
LayerCount: 2
Layer: 0 0 "+BBcEMAQ0BD0EOAQ5 +BD8EOwQwBD0A"  1
Layer: 1 0 "+BB8ENQRABDUENAQ9BDgEOQAA +BD8EOwQwBD0A"  0
NeedsXUIDChange: 1
XUID: [1067 305 2130962764 8384606]
OS2Version: 0
OS2_WeightWidthSlopeOnly: 0
OS2_UseTypoMetrics: 1
CreationTime: 1173945795
ModificationTime: 1234671223
OS2TypoAscent: 0
OS2TypoAOffset: 1
OS2TypoDescent: 0
OS2TypoDOffset: 1
OS2TypoLinegap: 0
OS2WinAscent: 0
OS2WinAOffset: 1
OS2WinDescent: 0
OS2WinDOffset: 1
HheadAscent: 0
HheadAOffset: 1
HheadDescent: 0
HheadDOffset: 1
OS2Vendor: 'PfEd'
DEI: 91125
Encoding: UnicodeBmp
UnicodeInterp: none
NameList: Adobe Glyph List
DisplaySize: -24
AntiAlias: 1
FitToEm: 1
WinInfo: 65184 16 23
BeginChars: 65537 25

StartChar: afii10090
Encoding: 1096 1096 0
Width: 721
Flags: HW
HStem: 0 64<160 309 410 559> 452 20G<99 107 363 369 602 606>
VStem: 58 102<64 461.2> 309 101<64 451.461> 559 102<64 458.685>
LayerCount: 2
Fore
SplineSet
58 42 m 2
 58 432 l 18
 58 465 76 472 101 472 c 2
 117 472 l 2
 142 472 160 465 160 432 c 10
 160 64 l 1
 309 64 l 1
 309 432 l 2
 309 465 327 472 352 472 c 2
 367 472 l 2
 392 472 410 465 410 432 c 2
 410 64 l 1
 559 64 l 1
 559 432 l 2
 559 465 577 472 602 472 c 2
 618 472 l 2
 643 472 661 465 661 432 c 2
 661 42 l 2
 661 0 634 0 618 0 c 2
 101 0 l 2
 85 0 58 0 58 42 c 2
EndSplineSet
EndChar

StartChar: afii10091
Encoding: 1097 1097 1
Width: 750
Flags: HMW
HStem: -139 20 0 64<160 309 410 559> 452 20G<110 118 363 369 601 607>
VStem: 58 102<64 473.9> 309 101<64 451.461> 559 102<64 450.435> 632 91<-130.065 0>
LayerCount: 2
Fore
SplineSet
58 42 m 2
 58 432 l 18
 58 465 76 472 101 472 c 2
 117 472 l 2
 142 472 160 465 160 432 c 10
 160 64 l 1
 309 64 l 1
 309 432 l 2
 309 465 327 472 352 472 c 2
 367 472 l 2
 392 472 410 465 410 432 c 2
 410 64 l 1
 559 64 l 1
 559 432 l 2
 559 465 577 472 602 472 c 2
 618 472 l 2
 643 472 661 465 661 432 c 2
 661 64 l 1
 688 64 l 2
 711 64 723 59 723 31 c 2
 723 -104 l 2
 723 -118 723 -139 690 -139 c 2x7a
 665 -139 l 2
 632 -139 632 -118 632 -104 c 2
 632 0 l 1
 101 0 l 2
 85 0 58 0 58 42 c 2
EndSplineSet
EndChar

StartChar: afii10067
Encoding: 1074 1074 2
Width: 453
Flags: HW
HStem: -0 64<157 280> 236 48<157 228.496> 408 64<157 269.344>
VStem: 55 102<64 236 284 408> 298 102<282.3 400.6> 317 104<55.6 230.4>
LayerCount: 2
Fore
SplineSet
55 42 m 2
 55 430 l 2
 55 464 72 472 97 472 c 2
 254 472 l 2
 295 472 340 470 370 441 c 0
 388 424 400 391 400 359 c 0xf8
 400 300 360 277 321 260 c 1
 365 244 421 210 421 142 c 0xf4
 421 5 327 -0 249 -0 c 2
 98 0 l 2
 82 0 55 0 55 42 c 2
157 64 m 1
 226 64 l 2
 280 64 317 76 317 144 c 0xf4
 317 226 256 236 201 236 c 2
 157 236 l 1
 157 64 l 1
157 284 m 1
 175 284 l 2
 215 284 299 290 299 354 c 0xf8
 299 408 250 408 227 408 c 2
 157 408 l 1
 157 284 l 1
EndSplineSet
EndChar

StartChar: afii10068
Encoding: 1075 1075 3
Width: 379
Flags: HMW
HStem: -0 21G<97 121> 405 67<165 337.839>
VStem: 53 112<10.9 408>
LayerCount: 2
Fore
SplineSet
53 46 m 2
 53 429 l 2
 53 456 61 472 95 472 c 2
 315 472 l 2
 350 472 354 449 354 439 c 0
 354 408 325 405 312 405 c 1
 165 408 l 1
 165 46 l 2
 165 19 160 0 121 -0 c 2
 97 -0 l 2
 58 0 53 19 53 46 c 2
EndSplineSet
EndChar

StartChar: afii10072
Encoding: 1078 1078 4
Width: 694
Flags: HW
HStem: 0 21G<62 94 340 353 599 631> 452 20G<69 116 340 353 577 624>
VStem: 297 99<7 180.7 306 465>
LayerCount: 2
Back
SplineSet
194.222 284.889 m 1
 194.222 284.889 l 1
 178.849 300.435 164.297 316.806 149.491 332.889 c 2
 77.0588 411.556 l 1
 68.8739 420.444 l 1
 63.1112 426.667 l 1
 59.1112 431.111 l 2
 52.8197 438.204 44.9761 446.946 47.4334 457.25 c 0
 47.7814 458.667 48.321 460.123 49.0263 461.448 c 0
 53.2765 469.434 61.777 471.916 70.2223 472.298 c 0
 82.189 472.841 94.2223 472.444 106.222 472.444 c 0
 116.444 472.441 126.995 472.889 136.889 469.919 c 0
 149.935 465.956 159.427 456.365 168.445 446.648 c 2
 191.001 422.222 l 2
 225.778 384.423 260.254 346.222 295.556 308.889 c 1
 295.556 407.111 l 1
 295.556 430.667 l 2
 295.631 438.667 295.861 446.833 299.556 454.128 c 0
 300.851 456.652 302.471 459 304.361 461.107 c 0
 306.06 463.001 307.976 464.701 310.063 466.156 c 0
 320.445 473.448 333.65 472.444 345.778 472.443 c 0
 356.993 472.441 369.022 473.221 378.912 466.984 c 0
 381.054 465.633 383.036 464 384.812 462.222 c 0
 386.667 460.307 388.353 458.16 389.717 455.841 c 0
 394.222 448.144 394.586 439.36 394.648 430.667 c 2
 394.667 408 l 1
 394.667 305.778 l 1
 500.251 420.444 l 1
 524.407 446.648 l 2
 533.126 456 542.222 465.327 554.667 469.493 c 0
 564.806 472.889 575.673 472.44 586.222 472.444 c 0
 598.203 472.444 610.222 472.8 622.221 472.317 c 0
 630.812 471.971 639.523 469.602 643.863 461.448 c 0
 644.568 460.123 645.108 458.667 645.456 457.25 c 0
 647.913 446.947 640 438.204 633.748 431.111 c 2
 629.726 426.667 l 1
 624 420.444 l 1
 615.83 411.556 l 1
 543.398 332.889 l 2
 528.592 316.806 514.041 300.435 498.667 284.889 c 1
 498.667 284 l 1
 514.513 260.828 528.889 236.629 543.929 212.889 c 2
 624.332 85.3333 l 2
 633.936 70.0995 643.858 55.0191 653.089 39.5555 c 0
 657.778 31.6915 662.198 22.612 658.222 13.4853 c 0
 654.931 5.85909 647.549 1.55554 639.548 0.523537 c 0
 630.221 -0.679574 620.444 -1.88351e-05 611.111 -1.88351e-05 c 0
 595.55 -1.88351e-05 578.129 -2.05691 565.244 8.44443 c 0
 556.889 15.2858 551.499 25.2395 545.778 34.2222 c 2
 520 75.1111 l 1
 465.986 160.889 l 2
 455.008 178.298 443.688 195.543 433.333 213.333 c 1
 408.815 186.667 l 2
 403.387 180.681 397.299 174.383 395.542 166.222 c 0
 394.481 161.297 394.667 156.12 394.667 151.111 c 2
 394.667 130.222 l 1
 394.667 61.7778 l 1
 394.645 41.3333 l 2
 394.576 32.8889 394.199 24.4444 389.962 17.0289 c 0
 388.638 14.6666 387.02 12.5289 385.168 10.5871 c 0
 383.416 8.75153 381.456 7.11109 379.331 5.72887 c 0
 369.482 -0.696465 357.484 -2.08616e-05 346.222 -2.08616e-05 c 0
 333.609 -2.08616e-05 319.937 -1.08047 309.246 6.87642 c 0
 307.201 8.3982 305.333 10.1578 303.692 12.1066 c 0
 301.776 14.3786 300.169 16.8889 298.944 19.5555 c 0
 295.916 26.3106 295.65 33.6626 295.556 40.8889 c 2
 295.556 60.8889 l 1
 295.556 133.333 l 1
 295.549 155.111 l 2
 295.533 160.276 295.703 165.651 294.222 170.667 c 0
 292.204 178.008 286.608 183.819 281.616 189.333 c 2
 259.556 213.333 l 1
 249.113 195.392 237.694 178.001 226.622 160.444 c 2
 172.825 75.1111 l 1
 147.058 34.2222 l 2
 141.333 25.2395 135.989 15.2858 127.645 8.44442 c 0
 114.76 -2.05691 97.3333 -2.53916e-05 81.7778 -2.53916e-05 c 0
 72.3916 -2.53916e-05 62.6667 -0.679581 53.3333 0.52353 c 0
 45.3333 1.55553 37.9582 5.85909 34.6502 13.4853 c 0
 30.6911 22.612 35.1058 31.6915 39.8 39.5555 c 0
 49.0307 55.0186 58.9529 70.1 68.5564 85.3333 c 2
 148.68 212.444 l 2
 163.747 236.335 178.222 260.683 194.222 284 c 1
 194.222 284.889 l 1
EndSplineSet
Fore
SplineSet
32 21 m 0
 32 26 32 30 51 60 c 2
 193 285 l 1
 62 427 l 2
 55 434 46 443 46 453 c 0
 46 465 55 472 69 472 c 2
 116 472 l 2
 142 472 145 470 187 425 c 2
 297 306 l 1
 297 432 l 2
 297 465 315 472 340 472 c 2
 353 472 l 2
 378 472 396 465 396 432 c 2
 396 306 l 1
 506 425 l 2
 548 470 551 472 577 472 c 2
 624 472 l 2
 638 472 647 465 647 453 c 0
 647 443 638 434 631 427 c 2
 500 285 l 1
 642 60 l 2
 661 30 661 26 661 21 c 0
 661 0 637 0 631 0 c 2
 599 0 l 2
 568 0 563 10 547 34 c 2
 547 34 438 207 435 213 c 1
 402 178 396 175 396 156 c 2
 396 40 l 2
 396 7 378 0 353 0 c 2
 340 0 l 2
 315 0 297 7 297 40 c 2
 297 156 l 2
 297 175 291 178 258 213 c 1
 255 207 146 34 146 34 c 2
 130 10 125 0 94 0 c 2
 62 0 l 2
 56 0 32 0 32 21 c 0
EndSplineSet
EndChar

StartChar: afii10074
Encoding: 1080 1080 5
Width: 504
Flags: HW
HStem: -0 21G<80 133 384 402> 452 20G<98 121 370 422>
VStem: 58 102<300 458.3> 342 102<-5.8 149.143>
LayerCount: 2
Back
SplineSet
79.7778 0 m 1
 79.7777 4.14848e-05 l 1
 72.6403 5.52404 65.3083 11.1112 61.4546 19.5556 c 0
 56.959 29.4209 57.9999 41.0272 57.9999 51.5556 c 2
 57.9999 105.333 l 1
 57.9999 351.556 l 1
 57.9999 418.222 l 2
 57.9999 429.981 56.5257 443.358 62.0923 454.159 c 0
 63.4105 456.717 65.0777 459.091 67.0163 461.216 c 0
 68.7608 463.111 70.7243 464.845 72.8612 466.308 c 0
 83.7777 473.778 97.835 472.444 110.444 472.444 c 0
 121.555 472.44 133.671 473.295 143.602 467.245 c 0
 145.76 465.93 147.762 464.361 149.555 462.587 c 0
 151.482 460.694 153.111 458.568 154.574 456.264 c 0
 160.766 446.092 159.775 433.654 159.777 422.222 c 2
 159.778 362.222 l 1
 159.778 265.778 l 1
 159.778 163.556 l 2
 159.778 143.437 159.171 123.207 160.222 103.111 c 1
 161.739 120.634 166.663 137.242 172.469 153.778 c 0
 178.868 172 186.333 189.871 194.086 207.556 c 0
 218.421 263.069 245.804 317.22 273.507 371.111 c 2
 300.474 423.111 l 2
 304.635 431.083 308.585 439.316 313.872 446.622 c 0
 318.298 452.736 323.74 458.111 330 462.3 c 0
 337.232 467.1 345.451 470.175 354 471.472 c 0
 362.21 472.717 370.61 472.442 378.889 472.444 c 2
 422.444 472.444 l 1
 429.522 467.039 436.748 461.531 440.634 453.263 c 0
 445.243 443.456 444.22 431.878 444.222 421.333 c 2
 444.222 367.111 l 1
 444.222 120.889 l 1
 444.222 54.2222 l 2
 444.222 42.4746 445.707 29.1311 440.209 18.3164 c 0
 438.889 15.7929 437.307 13.444 435.417 11.3373 c 0
 433.718 9.44307 431.778 7.74352 429.715 6.22218 c 0
 418.811 -1.31604 404.847 -3.9041e-05 392.222 -3.9041e-05 c 0
 380.923 -3.9041e-05 368.667 -0.888928 358.62 5.19952 c 0
 356.462 6.51418 354.444 8.08352 352.66 9.85774 c 0
 350.74 11.7506 349.05 13.8768 347.648 16.1804 c 0
 341.456 26.3524 342.444 38.7906 342.444 50.2222 c 2
 342.444 109.778 l 1
 342.444 206.667 l 1
 342.444 308.889 l 2
 342.444 329.008 343.051 349.237 342 369.333 c 1
 340.483 351.81 335.56 335.203 329.753 318.667 c 0
 323.333 300.443 315.889 282.573 308.136 264.889 c 0
 283.868 209.527 256.564 155.525 228.944 101.778 c 2
 201.748 49.3333 l 2
 197.556 41.3333 193.637 33.128 188.35 25.7778 c 0
 183.924 19.7084 178.444 14.3338 172.194 10.1444 c 0
 164.99 5.33333 156.772 2.22222 148.222 0.972889 c 0
 140.012 -0.272 131.612 0 123.333 0 c 2
 79.7778 0 l 1
EndSplineSet
Fore
SplineSet
58 41 m 2
 58 431 l 2
 58 454 66 472 98 472 c 2
 121 472 l 2
 154 472 160 452 160 431 c 2
 160 103 l 1
 166 169 252 331 300 423 c 0
 310 442 321 472 370 472 c 2
 422 472 l 1
 443 459 444 448 444 431 c 2
 444 41 l 2
 444 5 424 -0 402 -0 c 2
 384 -0 l 2
 363 0 342 5 342 42 c 0
 342 369 l 1
 335 292 193 33 188 26 c 0
 171 1 145 -0 133 -0 c 2
 80 -0 l 1
 66 10 58 17 58 41 c 2
EndSplineSet
EndChar

StartChar: afii10076
Encoding: 1082 1082 6
Width: 457
Flags: HW
HStem: 0 21G<101 114 360 392> 452 20G<101 114 338 385>
VStem: 58 99<7 180.7 306 465>
LayerCount: 2
Fore
SplineSet
58 40 m 6
 58 432 l 2
 58 465 76 472 101 472 c 2
 114 472 l 2
 139 472 157 465 157 432 c 2
 157 306 l 1
 267 425 l 2
 309.046 470.486 312.167 472 338 472 c 2
 385 472 l 2
 399 472 408 465 408 453 c 0
 408 443 399 434 392 427 c 2
 261 285 l 1
 403 60 l 2
 422 30 422 26 422 21 c 0
 422 0 398 -0 392 0 c 2
 360 -0 l 2
 329 0 324 10 308 34 c 2
 308 34 199 207 196 213 c 1
 163 178 157 175 157 156 c 2
 157 40 l 2
 157 7 139 0 114 0 c 2
 101 0 l 2
 76 0 58 7 58 40 c 6
EndSplineSet
EndChar

StartChar: afii10077
Encoding: 1083 1083 7
Width: 512
Flags: HMW
HStem: 0 74<20.8778 79> 408 64<219 351>
VStem: 136 83<183 408> 351 102<-2.9 408>
LayerCount: 2
Fore
SplineSet
18 28 m 2
 18 51 l 2
 18 71 26 74 39 74 c 2
 58 74 l 2
 79 74 93 80 105 108 c 0
 123 149 136 234 136 404 c 2
 136 427 l 2
 136 453 141 472 175 472 c 2
 411 472 l 2
 436 472 453 466 453 430 c 2
 453 40 l 2
 453 7 435 0 410 0 c 2
 394 0 l 2
 369 0 351 7 351 40 c 2
 351 408 l 1
 219 408 l 1
 219 57 156 0 61 0 c 2
 46 0 l 2
 21 0 18 2 18 28 c 2
EndSplineSet
EndChar

StartChar: afii10079
Encoding: 1085 1085 8
Width: 483
Flags: HW
HStem: 0 21G<101 117 364 380> 236 48<160 321> 452 20G<101 117 364 380>
VStem: 58 102<-2.9 236 284 465> 321 102<7 236 284 465>
LayerCount: 2
Fore
SplineSet
58 40 m 2
 58 432 l 2
 58 465 76 472 101 472 c 2
 117 472 l 2
 142 472 160 465 160 432 c 2
 160 284 l 1
 321 284 l 1
 321 432 l 2
 321 465 339 472 364 472 c 2
 380 472 l 2
 405 472 423 465 423 432 c 2
 423 40 l 2
 423 7 405 0 380 0 c 2
 364 0 l 2
 339 0 321 7 321 40 c 2
 321 236 l 1
 160 236 l 1
 160 40 l 2
 160 7 142 0 117 0 c 2
 101 0 l 2
 76 0 58 7 58 40 c 2
EndSplineSet
EndChar

StartChar: afii10084
Encoding: 1090 1090 9
Width: 433
Flags: HW
HStem: 0 21G<204 228> 405 67<21.4 160 272 403>
VStem: 160 112<19 407>
LayerCount: 2
Fore
SplineSet
24 438 m 0
 24 449 29 472 62 472 c 2
 370 472 l 2
 403 472 408 449 408 438 c 0
 408 425 401 405 369 405 c 1
 272 407 l 1
 272 46 l 2
 272 19 267 0 228 0 c 2
 204 0 l 2
 165 0 160 19 160 46 c 2
 160 407 l 1
 63 405 l 17
 31 405 24 425 24 438 c 0
EndSplineSet
EndChar

StartChar: afii10087
Encoding: 1093 1093 10
Width: 431
Flags: HMW
HStem: 0 21G<52 76 353 377> 452 20G<58 82 338 362>
LayerCount: 2
Fore
SplineSet
19 20 m 0
 19 23 19 29 27 40 c 2
 169 244 l 1
 33 433 l 2
 27 442 25 447 25 452 c 0
 25 472 44 472 58 472 c 2
 82 472 l 2
 113 472 116 467 127 451 c 2
 212 326 l 1
 293 450 l 2
 306 469 311 472 338 472 c 2
 362 472 l 2
 376 472 395 472 395 451 c 0
 395 445 392 440 387 433 c 2
 255 244 l 1
 403 38 l 2
 409 30 411 26 411 20 c 0
 411 0 391 0 377 0 c 2
 353 0 l 2
 325 0 320 4 308 22 c 2
 212 178 l 1
 121 23 l 2
 108 0 98 0 76 0 c 2
 52 0 l 2
 37 0 19 0 19 20 c 0
EndSplineSet
EndChar

StartChar: afii10088
Encoding: 1094 1094 11
Width: 533
Flags: HMW
HStem: -139 20 0 64<160 342> 452 20G<101 117 385 401>
VStem: 58 102<64 474.9> 342 102<64 465> 415 91<-130.065 0>
LayerCount: 2
Fore
SplineSet
58 42 m 2x74
 58 432 l 18
 58 465 76 472 101 472 c 2
 117 472 l 2
 142 472 160 465 160 432 c 10
 160 64 l 1
 342 64 l 1
 342 432 l 2
 342 465 360 472 385 472 c 2
 401 472 l 2
 426 472 444 465 444 432 c 2
 444 64 l 1x78
 471 64 l 2
 494 64 506 59 506 31 c 2
 506 -104 l 2
 506 -118 506 -139 473 -139 c 2
 448 -139 l 2
 415 -139 415 -118 415 -104 c 2
 415 0 l 1
 101 0 l 2
 85 0 58 0 58 42 c 2x74
EndSplineSet
EndChar

StartChar: afii10089
Encoding: 1095 1095 12
Width: 504
Flags: HW
HStem: 0 21G<385 401> 203 48<145.5 342> 452 20G<101 117 385 401>
VStem: 58 102<282.3 465> 342 102<7 203 251 465>
LayerCount: 2
Fore
SplineSet
58 345 m 2
 58 432 l 2
 58 465 76 472 101 472 c 2
 117 472 l 2
 142 472 160 465 160 432 c 2
 160 346 l 2
 160 297 162 251 217 251 c 2
 342 251 l 1
 342 432 l 2
 342 465 360 472 385 472 c 2
 401 472 l 2
 426 472 444 465 444 432 c 2
 444 40 l 2
 444 7 426 0 401 0 c 2
 385 0 l 2
 360 0 342 7 342 40 c 2
 342 203 l 1
 215 203 l 2
 112 203 58 255 58 345 c 2
EndSplineSet
EndChar

StartChar: afii10096
Encoding: 1102 1102 13
Width: 690
Flags: HW
HStem: -10 70<359.7 509.2> 236 48<165 241> 423 64<380.5 518.3>
VStem: 53 112<10.9 236 284 453> 241 111<161.8 236> 552 111<162.807 303.194>
LayerCount: 2
Fore
SplineSet
53 46 m 2
 53 426 l 2
 53 453 58 472 97 472 c 2
 121 472 l 2
 160 472 165 453 165 426 c 2
 165 284 l 1
 244 284 l 1
 249 330 262 376 292 415 c 0
 332 469 397 487 452 487 c 0
 503 487 568 472 611 417 c 0
 658 358 663 279 663 232 c 0
 663 192 660 111 607 52 c 0
 562 1 496 -10 452 -10 c 0
 381 -10 325 17 294 54 c 0
 248 110 241 178 241 232 c 2
 241 232 241 235 241 236 c 1
 165 236 l 1
 165 46 l 2
 165 19 160 0 121 -0 c 2
 97 -0 l 2
 58 0 53 19 53 46 c 2
352 244 m 0
 352 177 352 60 452 60 c 0
 552 60 552 177 552 244 c 0
 552 310 552 423 452 423 c 0
 352 423 352 311 352 244 c 0
EndSplineSet
EndChar

StartChar: afii10093
Encoding: 1099 1099 14
Width: 642
Flags: HW
HStem: -0 21G<522 541> 0 70<160 264> 236 48<160 263.979> 453 20G<109 117 520 522 534 551>
VStem: 58 102<70 236 284 459.298> 317 103<54.5 191.3> 480 102<10.5 455>
LayerCount: 2
Fore
SplineSet
480 40 m 2
 480 432 l 2
 480 465 498 472 523 472 c 2
 539 472 l 2
 564 472 582 465 582 432 c 2
 582 40 l 2
 582 7 564 0 539 0 c 2
 523 0 l 2
 498 0 480 7 480 40 c 2
EndSplineSet
Refer: 15 1100 N 1 0 0 1 0 0 2
EndChar

StartChar: afii10094
Encoding: 1100 1100 15
Width: 453
Flags: HW
HStem: -0 70<160 264> 236 48<160 263.979> 453 20G<109 117>
VStem: 58 102<70 236 284 459.298> 317 103<54.5 191.3>
LayerCount: 2
Fore
SplineSet
58 44 m 2
 58 433 l 2
 58 466 76 472 101 472 c 2
 117 472 l 2
 142 472 160 465 160 432 c 2
 160 284 l 1
 241 284 l 2
 306 284 360 275 394 232 c 0
 412 210 420 182 420 151 c 0
 420 4 305 -0 242 -0 c 2
 103 -0 l 2
 74 0 58 6 58 44 c 2
160 70 m 1
 217 70 l 2
 264 70 317 77 317 152 c 0
 317 234 246 236 218 236 c 2
 160 236 l 1
 160 70 l 1
EndSplineSet
EndChar

StartChar: afii10194
Encoding: 1123 1123 16
Width: 475
Flags: HW
HStem: -0 70<182 286> 236 48<182 285.979> 408 64<24 80 182 306> 693 20G<123 135>
VStem: 80 102<70 236 284 408 472 701.8> 339 103<54.5 191.3>
LayerCount: 2
Fore
SplineSet
18 441 m 0
 18 452 24 472 58 472 c 2
 80 472 l 1
 80 673 l 2
 80 706 98 713 123 713 c 2
 139 713 l 2
 164 713 182 706 182 673 c 2
 182 472 l 1
 271 472 l 2
 306 472 313 453 313 440 c 0
 313 427 306 408 271 408 c 2
 182 408 l 1
 182 284 l 1
 263 284 l 2
 328 284 382 275 416 232 c 0
 434 210 442 182 442 151 c 0
 442 4 327 -0 264 -0 c 2
 126 -0 l 2
 102 0 80 3 80 42 c 2
 80 408 l 1
 59 408 l 2
 23 408 18 429 18 441 c 0
182 70 m 1
 239 70 l 2
 286 70 339 77 339 152 c 0
 339 234 268 236 240 236 c 2
 182 236 l 1
 182 70 l 1
EndSplineSet
EndChar

StartChar: upsilon
Encoding: 965 965 17
Width: 475
Flags: HW
HStem: -10 112<181.9 334> 452 20G<51 121 290 366>
VStem: 98 112<191.944 348.722> 323 112<164.609 348.2>
LayerCount: 2
Fore
SplineSet
30 460 m 0
 30 470 40 472 51 472 c 2
 121 472 l 2
 140 472 143 466 152 452 c 0
 181 405 204 341 210 280 c 0
 216 221 202 102 269 102 c 0
 319 102 323 189 323 233 c 0
 323 372 266 443 266 461 c 0
 266 472 282 472 290 472 c 2
 366 472 l 2
 382 472 386 468 391 456 c 0
 415 399 435 323 435 239 c 0
 435 94 368 -10 268 -10 c 0
 170 -10 114 86 103 196 c 0
 98 240 109 336 39 441 c 0
 36 447 30 454 30 460 c 0
EndSplineSet
EndChar

StartChar: beta
Encoding: 946 946 18
Width: 475
Flags: HW
HStem: -10 85<191.5 303.3> 351 73<151 229> 627 77<132.7 261.4>
VStem: 39 112<-84.5244 29 50.5 351 424 602.6> 276 111<442.8 639.2> 323 112<110.2 357.2>
LayerCount: 2
Fore
SplineSet
39 -61 m 2xf4
 39 475 l 2
 39 611 74 704 214 704 c 0
 306 704 387 668 387 526 c 0xf8
 387 462 353 423 316 398 c 1
 362 376 435 334 435 198 c 0
 435 72 337 -10 239 -10 c 0
 186 -10 160 20 151 29 c 1
 151 -65 l 2
 151 -84 142 -86 128 -86 c 2
 61 -86 l 2
 40 -86 39 -77 39 -61 c 2xf4
151 252 m 2
 151 97 202 75 237 75 c 0
 288 75 323 130 323 196 c 0xf4
 323 320 249 351 151 351 c 1
 151 252 l 2
151 424 m 1
 211 424 276 459 276 530 c 0xf8
 276 614 250 627 212 627 c 0
 151 627 151 584 151 522 c 10
 151 424 l 1
EndSplineSet
EndChar

StartChar: iota
Encoding: 953 953 19
Width: 264
Flags: HW
VStem: 28 112<96.4 476.168>
LayerCount: 2
Fore
SplineSet
28 126 m 2
 28 461 l 2
 28 476 32 484 49 484 c 2
 117 484 l 2
 138 484 140 476 140 456 c 2
 140 125 l 2
 140 103 147 93 155 93 c 0
 172 93 168 128 175 137 c 0
 179 142 188 143 197 143 c 2
 225 143 l 2
 239 143 249 141 249 124 c 0
 249 82 220 -10 139 -10 c 0
 94 -10 28 25 28 126 c 2
EndSplineSet
EndChar

StartChar: kappa
Encoding: 954 954 20
Width: 459
Flags: HMW
HStem: -11 21<71.5 86 86 130 359.5 365 365 483> 372 100<387 462.223>
VStem: 52 112<-17.2 161.434 299 480.725>
LayerCount: 2
Fore
SplineSet
52 14 m 2
 52 457 l 2
 52 483 55 484 93 484 c 2
 140 484 l 2
 162 484 164 474 164 461 c 2
 164 299 l 1
 316 443 315 450 362 463 c 0
 392 471 426 472 442 472 c 0
 457 472 464 470 464 449 c 2
 464 404 l 2
 464 380 464 372 443 372 c 2
 423 372 l 2
 387 372 379 365 343 331 c 2
 256 248 l 1
 489 19 l 2
 494 14 502 7 502 0 c 0
 502 -10 490 -11 483 -11 c 2
 365 -11 l 2
 354 -11 350 -9 306 36 c 2
 174 171 l 1
 166 162 164 158 164 143 c 2
 164 14 l 2
 164 -10 159 -11 130 -11 c 2
 86 -11 l 2
 57 -11 52 -10 52 14 c 2
EndSplineSet
EndChar

StartChar: mu
Encoding: 956 956 21
Width: 528
Flags: HW
HStem: -21 112<170.2 237.5>
VStem: 28 112<-176.524 3 112 480> 269 112<119.9 476.733>
LayerCount: 2
Fore
SplineSet
28 -153 m 2
 28 464 l 2
 28 480 35 484 50 484 c 2
 117 484 l 2
 140 484 140 472 140 457 c 2
 140 224 l 2
 140 112 178 91 205 91 c 0
 230 91 269 113 269 217 c 2
 269 462 l 2
 269 474 271 484 291 484 c 2
 358 484 l 2
 381 484 381 478 381 444 c 2
 381 240 l 2
 381 216 380 197 380 181 c 0
 380 134 387 101 416 101 c 0
 431 101 449 117 449 134 c 2
 449 140 l 2
 449 150 451 160 473 160 c 2
 494 160 l 2
 521 160 526 159 530 132 c 0
 531 125 532 119 532 113 c 0
 532 43 475 -21 399 -21 c 0
 338 -21 309 23 297 41 c 1
 286 20 260 -21 204 -21 c 0
 178 -21 161 -13 140 3 c 1
 140 -157 l 2
 140 -176 131 -178 117 -178 c 2
 50 -178 l 2
 29 -178 28 -169 28 -153 c 2
EndSplineSet
EndChar

StartChar: nu
Encoding: 957 957 22
Width: 449
Flags: HW
HStem: -0 21G<190 260> 452 20G<10 112 331 393>
VStem: 322 111<246.6 392.399>
LayerCount: 2
Fore
SplineSet
-9 461 m 0
 -9 470 1 472 10 472 c 2
 112 472 l 2
 159 472 164 420 240 153 c 1
 260 185 322 270 322 348 c 0
 322 379 310 433 310 456 c 0
 310 469 316 472 331 472 c 2
 393 472 l 2
 415 472 418 470 423 443 c 0
 426 417 433 376 433 364 c 0
 433 250 362 149 285 17 c 0
 279 8 275 0 260 -0 c 2
 190 -0 l 2
 169 0 168 9 164 24 c 2
 74 330 l 2
 39.6208 446.889 -9 436 -9 461 c 0
EndSplineSet
EndChar

StartChar: tau
Encoding: 964 964 23
Width: 435
Flags: HMW
HStem: -10 111<272 286 272 305.5> 370 102<33.6 119 231 395>
VStem: 119 112<130.643 370>
LayerCount: 2
Fore
SplineSet
-33 429 m 0
 -33 447 36 472 110 472 c 2
 366 472 l 2
 395 472 396 468 396 446 c 2
 396 395 l 2
 396 377 394 370 373 370 c 2
 231 370 l 1
 231 159 l 2
 231 140 231 118 256 105 c 0
 262 102 269 101 275 101 c 0
 297 101 314 116 319 133 c 0
 324 150 326 153 344 153 c 2
 375 153 l 2
 387 153 398 153 398 134 c 0
 398 80 352 -10 259 -10 c 0
 205 -10 119 26 119 158 c 2
 119 370 l 1
 109 370 l 2
 51 370 35 344 22 344 c 0
 8 344 -33 422 -33 429 c 0
EndSplineSet
EndChar

StartChar: caron.cap
Encoding: 65536 -1 24
Width: 475
Flags: W
HStem: 836 76<180 296>
VStem: 88 300<735 752>
LayerCount: 2
Back
SplineSet
392 747 m 4
 392 736 378 735 368 735 c 6
 352 735 l 6
 324 735 324 750 236 829 c 5
 140 737 142 735 122 735 c 6
 108 735 l 6
 96 735 82 736 82 747 c 4
 82 753 88 761 92 766 c 6
 178 887 l 6
 190 902 194 903 208 903 c 6
 266 903 l 6
 284 903 284 901 304 873 c 4
 390 754 392 753 392 747 c 4
EndSplineSet
Fore
SplineSet
88 746 m 0
 88 752 92 758 96 764 c 2
 188 899 l 2
 196 911 207 912 218 912 c 2
 258 912 l 2
 269 912 280 911 288 899 c 2
 380 764 l 2
 384 758 388 752 388 746 c 0
 388 735 374 735 364 735 c 2
 348 735 l 2
 331 735 329 735 298 769 c 2
 238 836 l 1
 178 769 l 2
 147 735 145 735 128 735 c 2
 112 735 l 2
 102 735 88 735 88 746 c 0
EndSplineSet
EndChar
